HIERARCHY
ROOT Root
{
  OFFSET 0.0 0.0 0.0
  CHANNELS 6 Xposition Yposition Zposition Zrotation Yrotation Xrotation
  JOINT Hips
  {
    OFFSET 0.0 100.0 0.0
    CHANNELS 6 Xposition Yposition Zposition Zrotation Yrotation Xrotation
    JOINT Spine1
    {
      OFFSET 5.003913 -0.037094 -0.013727
      CHANNELS 3 Zrotation Yrotation Xrotation
      JOINT Spine2
      {
        OFFSET 7.125363 -1e-06 0.0
        CHANNELS 3 Zrotation Yrotation Xrotation
        JOINT Chest
        {
          OFFSET 7.594027 1e-06 0.0
          CHANNELS 3 Zrotation Yrotation Xrotation
          JOINT Neck1
          {
            OFFSET 26.313086 -0.460272 -0.181672
            CHANNELS 3 Zrotation Yrotation Xrotation
            JOINT Neck2
            {
              OFFSET 8.045911 0.0 0.0
              CHANNELS 3 Zrotation Yrotation Xrotation
              JOINT Head
              {
                OFFSET 6.432774 0.0 0.0
                CHANNELS 3 Zrotation Yrotation Xrotation
                JOINT HeadEnd
                {
                  OFFSET 16.169773 0.06451 0.00362
                  CHANNELS 3 Zrotation Yrotation Xrotation
                }
                JOINT Jaw
                {
                  OFFSET 0.108741 3.12938 0.002639
                  CHANNELS 3 Zrotation Yrotation Xrotation
                }
                JOINT LeftEye
                {
                  OFFSET 4.45173 8.166359 3.206392
                  CHANNELS 3 Zrotation Yrotation Xrotation
                }
                JOINT RightEye
                {
                  OFFSET 4.436895 8.135758 -3.222429
                  CHANNELS 3 Zrotation Yrotation Xrotation
                }
              }
            }
          }
          JOINT LeftShoulder
          {
            OFFSET 23.218927 5.195579 1.621656
            CHANNELS 3 Zrotation Yrotation Xrotation
            JOINT LeftArm
            {
              OFFSET 15.902118 2e-06 -2e-06
              CHANNELS 3 Zrotation Yrotation Xrotation
              JOINT LeftForeArm
              {
                OFFSET 28.739307 0.0 -1e-06
                CHANNELS 3 Zrotation Yrotation Xrotation
                JOINT LeftHand
                {
                  OFFSET 27.093981 -4e-06 0.0
                  CHANNELS 3 Zrotation Yrotation Xrotation
                  JOINT LeftHandThumb1
                  {
                    OFFSET 2.276781 3.380274 0.83384
                    CHANNELS 3 Zrotation Yrotation Xrotation
                    JOINT LeftHandThumb2
                    {
                      OFFSET 4.705309 -1e-06 -1e-06
                      CHANNELS 3 Zrotation Yrotation Xrotation
                      JOINT LeftHandThumb3
                      {
                        OFFSET 2.798515 0.0 3e-06
                        CHANNELS 3 Zrotation Yrotation Xrotation
                        JOINT LeftHandThumbEnd
                        {
                          OFFSET 3.180793 4e-06 -4e-06
                          CHANNELS 3 Zrotation Yrotation Xrotation
                        }
                      }
                    }
                  }
                  JOINT LeftHandIndex1
                  {
                    OFFSET 3.247786 2.352677 0.137192
                    CHANNELS 3 Zrotation Yrotation Xrotation
                    JOINT LeftHandIndex2
                    {
                      OFFSET 6.367095 1e-06 0.0
                      CHANNELS 3 Zrotation Yrotation Xrotation
                      JOINT LeftHandIndex3
                      {
                        OFFSET 3.662364 0.0 0.0
                        CHANNELS 3 Zrotation Yrotation Xrotation
                        JOINT LeftHandIndex4
                        {
                          OFFSET 2.329242 4e-06 -4e-06
                          CHANNELS 3 Zrotation Yrotation Xrotation
                          JOINT LeftHandIndexEnd
                          {
                            OFFSET 2.767823 1e-06 0.0
                            CHANNELS 3 Zrotation Yrotation Xrotation
                          }
                        }
                      }
                    }
                  }
                  JOINT LeftHandMiddle1
                  {
                    OFFSET 3.163612 0.945023 -0.406112
                    CHANNELS 3 Zrotation Yrotation Xrotation
                    JOINT LeftHandMiddle2
                    {
                      OFFSET 6.276789 3e-06 0.0
                      CHANNELS 3 Zrotation Yrotation Xrotation
                      JOINT LeftHandMiddle3
                      {
                        OFFSET 4.35652 -1e-06 4e-06
                        CHANNELS 3 Zrotation Yrotation Xrotation
                        JOINT LeftHandMiddle4
                        {
                          OFFSET 2.996877 0.0 8e-06
                          CHANNELS 3 Zrotation Yrotation Xrotation
                          JOINT LeftHandMiddleEnd
                          {
                            OFFSET 2.323256 3e-06 -4e-06
                            CHANNELS 3 Zrotation Yrotation Xrotation
                          }
                        }
                      }
                    }
                  }
                  JOINT LeftHandRing1
                  {
                    OFFSET 2.882606 -0.309162 0.107445
                    CHANNELS 3 Zrotation Yrotation Xrotation
                    JOINT LeftHandRing2
                    {
                      OFFSET 6.033198 0.0 4e-06
                      CHANNELS 3 Zrotation Yrotation Xrotation
                      JOINT LeftHandRing3
                      {
                        OFFSET 4.350578 3e-06 0.0
                        CHANNELS 3 Zrotation Yrotation Xrotation
                        JOINT LeftHandRing4
                        {
                          OFFSET 2.651321 2e-06 -7e-06
                          CHANNELS 3 Zrotation Yrotation Xrotation
                          JOINT LeftHandRingEnd
                          {
                            OFFSET 1.937663 1e-06 -4e-06
                            CHANNELS 3 Zrotation Yrotation Xrotation
                          }
                        }
                      }
                    }
                  }
                  JOINT LeftHandPinky1
                  {
                    OFFSET 2.865315 -1.525436 0.575687
                    CHANNELS 3 Zrotation Yrotation Xrotation
                    JOINT LeftHandPinky2
                    {
                      OFFSET 5.54936 1e-06 -8e-06
                      CHANNELS 3 Zrotation Yrotation Xrotation
                      JOINT LeftHandPinky3
                      {
                        OFFSET 3.070974 0.0 -4e-06
                        CHANNELS 3 Zrotation Yrotation Xrotation
                        JOINT LeftHandPinky4
                        {
                          OFFSET 1.549672 1e-06 0.0
                          CHANNELS 3 Zrotation Yrotation Xrotation
                          JOINT LeftHandPinkyEnd
                          {
                            OFFSET 1.952123 0.0 0.0
                            CHANNELS 3 Zrotation Yrotation Xrotation
                          }
                        }
                      }
                    }
                  }
                }
              }
            }
          }
          JOINT RightShoulder
          {
            OFFSET 23.161716 5.296122 -1.380114
            CHANNELS 3 Zrotation Yrotation Xrotation
            JOINT RightArm
            {
              OFFSET -16.027195 -2e-06 1.1e-05
              CHANNELS 3 Zrotation Yrotation Xrotation
              JOINT RightForeArm
              {
                OFFSET -28.736639 4e-06 2e-06
                CHANNELS 3 Zrotation Yrotation Xrotation
                JOINT RightHand
                {
                  OFFSET -27.133619 6e-06 0.0
                  CHANNELS 3 Zrotation Yrotation Xrotation
                  JOINT RightHandThumb1
                  {
                    OFFSET -2.274328 -3.351035 -0.83067
                    CHANNELS 3 Zrotation Yrotation Xrotation
                    JOINT RightHandThumb2
                    {
                      OFFSET -4.703594 -3e-06 2e-06
                      CHANNELS 3 Zrotation Yrotation Xrotation
                      JOINT RightHandThumb3
                      {
                        OFFSET -2.794935 -4e-06 -3e-06
                        CHANNELS 3 Zrotation Yrotation Xrotation
                        JOINT RightHandThumbEnd
                        {
                          OFFSET -3.183852 4e-06 1e-06
                          CHANNELS 3 Zrotation Yrotation Xrotation
                        }
                      }
                    }
                  }
                  JOINT RightHandIndex1
                  {
                    OFFSET -3.253496 -2.33755 -0.127667
                    CHANNELS 3 Zrotation Yrotation Xrotation
                    JOINT RightHandIndex2
                    {
                      OFFSET -6.344434 0.0 0.0
                      CHANNELS 3 Zrotation Yrotation Xrotation
                      JOINT RightHandIndex3
                      {
                        OFFSET -3.654871 0.0 -8e-06
                        CHANNELS 3 Zrotation Yrotation Xrotation
                        JOINT RightHandIndex4
                        {
                          OFFSET -2.327586 -1e-06 0.0
                          CHANNELS 3 Zrotation Yrotation Xrotation
                          JOINT RightHandIndexEnd
                          {
                            OFFSET -2.770001 3e-06 8e-06
                            CHANNELS 3 Zrotation Yrotation Xrotation
                          }
                        }
                      }
                    }
                  }
                  JOINT RightHandMiddle1
                  {
                    OFFSET -3.168223 -0.944764 0.411762
                    CHANNELS 3 Zrotation Yrotation Xrotation
                    JOINT RightHandMiddle2
                    {
                      OFFSET -6.266691 -1e-06 -4e-06
                      CHANNELS 3 Zrotation Yrotation Xrotation
                      JOINT RightHandMiddle3
                      {
                        OFFSET -4.348901 0.0 0.0
                        CHANNELS 3 Zrotation Yrotation Xrotation
                        JOINT RightHandMiddle4
                        {
                          OFFSET -3.00024 2e-06 -4e-06
                          CHANNELS 3 Zrotation Yrotation Xrotation
                          JOINT RightHandMiddleEnd
                          {
                            OFFSET -2.321477 -4e-06 -4e-06
                            CHANNELS 3 Zrotation Yrotation Xrotation
                          }
                        }
                      }
                    }
                  }
                  JOINT RightHandRing1
                  {
                    OFFSET -2.885654 0.293261 -0.119232
                    CHANNELS 3 Zrotation Yrotation Xrotation
                    JOINT RightHandRing2
                    {
                      OFFSET -6.032835 -1e-06 -4e-06
                      CHANNELS 3 Zrotation Yrotation Xrotation
                      JOINT RightHandRing3
                      {
                        OFFSET -4.33881 0.0 -4e-06
                        CHANNELS 3 Zrotation Yrotation Xrotation
                        JOINT RightHandRing4
                        {
                          OFFSET -2.654903 -4e-06 -4e-06
                          CHANNELS 3 Zrotation Yrotation Xrotation
                          JOINT RightHandRingEnd
                          {
                            OFFSET -1.935122 0.0 4e-06
                            CHANNELS 3 Zrotation Yrotation Xrotation
                          }
                        }
                      }
                    }
                  }
                  JOINT RightHandPinky1
                  {
                    OFFSET -2.866241 1.503904 -0.60527
                    CHANNELS 3 Zrotation Yrotation Xrotation
                    JOINT RightHandPinky2
                    {
                      OFFSET -5.553177 -2e-06 0.0
                      CHANNELS 3 Zrotation Yrotation Xrotation
                      JOINT RightHandPinky3
                      {
                        OFFSET -3.062664 -1e-06 -4e-06
                        CHANNELS 3 Zrotation Yrotation Xrotation
                        JOINT RightHandPinky4
                        {
                          OFFSET -1.546529 2e-06 4e-06
                          CHANNELS 3 Zrotation Yrotation Xrotation
                          JOINT RightHandPinkyEnd
                          {
                            OFFSET -1.952341 0.0 -4e-06
                            CHANNELS 3 Zrotation Yrotation Xrotation
                          }
                        }
                      }
                    }
                  }
                }
              }
            }
          }
        }
      }
    }
    JOINT LeftLeg
    {
      OFFSET -8.443107 2.567604 10.043214
      CHANNELS 3 Zrotation Yrotation Xrotation
      JOINT LeftShin
      {
        OFFSET 43.229198 1e-06 -1e-06
        CHANNELS 3 Zrotation Yrotation Xrotation
        JOINT LeftFoot
        {
          OFFSET 42.298611 1e-06 1e-06
          CHANNELS 3 Zrotation Yrotation Xrotation
          JOINT LeftToeBase
          {
            OFFSET 14.165858 1e-06 0.0
            CHANNELS 3 Zrotation Yrotation Xrotation
            JOINT LeftToeEnd
            {
              OFFSET 6.7141 -0.234461 0.0
              CHANNELS 3 Zrotation Yrotation Xrotation
            }
          }
        }
      }
    }
    JOINT RightLeg
    {
      OFFSET -8.303923 2.592729 -10.047278
      CHANNELS 3 Zrotation Yrotation Xrotation
      JOINT RightShin
      {
        OFFSET -43.369682 0.0 1e-06
        CHANNELS 3 Zrotation Yrotation Xrotation
        JOINT RightFoot
        {
          OFFSET -42.260784 4e-06 2e-06
          CHANNELS 3 Zrotation Yrotation Xrotation
          JOINT RightToeBase
          {
            OFFSET -14.222245 -2e-06 -1e-06
            CHANNELS 3 Zrotation Yrotation Xrotation
            JOINT RightToeEnd
            {
              OFFSET -6.660062 0.232574 -2e-06
              CHANNELS 3 Zrotation Yrotation Xrotation
            }
          }
        }
      }
    }
  }
}
MOTION
Frames: 4
Frame Time: 0.03333333333333333
0.0 0.0 0.0 0.0 -0.0 0.0 -2.073733 96.209892 -7.216599 88.629562 -1.5141 89.740707 -2.82527 1.898172 0.304004 -12.474586 -0.284906 0.439464 29.097275 -0.653532 -1.534301 38.605721 -3.589988 2.199488 -2.867748 -0.487393 -0.205769 -33.046852 -0.296375 -0.848528 -0.006653 -0.0 -0.000275 -0.069675 -0.022937 0.054181 0.062262 -0.105057 0.056821 0.053154 0.054022 0.047808 -132.331345 -86.130821 154.191498 54.647881 -53.834518 -15.436264 24.775747 -0.467825 -0.360083 -0.21795 4.142673 -13.140453 17.676722 -26.38736 52.50882 -19.505037 -14.414725 29.43886 0.003873 -8.796284 0.005285 16.635782 -18.613047 5.817386 -0.613478 -1.80411 -3.880312 -4.81486 -11.065073 -2.947969 0.002919 -21.012268 0.003099 -5.040792 -25.066017 -4.025358 0.005272 0.00236 0.004058 -10.656112 -5.700423 -3.546871 10.595338 -17.96452 -3.135145 -0.003002 -13.848613 0.014694 -0.502808 -31.228943 -4.034611 -11.681857 -60.593697 7.61239 -14.015167 -7.168981 -2.86845 13.798536 -8.4133 -3.204525 0.333094 -34.272346 0.770597 -0.955886 -17.754467 2.608632 -0.00388 -0.007144 0.002524 -17.385967 -20.139387 -4.189423 21.780174 -1.631252 3.872581 -0.000971 -6.35265 0.004244 -1.69513 -22.641937 -6.185326 0.000645 0.001226 -0.002285 -33.140942 -82.31765 -124.191818 57.052307 -44.746441 -5.578263 36.176762 0.552467 0.33745 -7.458928 1.719667 -20.64683 22.215277 -20.340979 49.958221 -16.727718 -16.756773 28.468506 0.00068 -12.708963 0.015044 16.405584 -17.832062 2.254552 -0.089922 -1.514499 -4.276031 -5.056814 -5.621165 -2.945607 0.00708 -11.02852 -0.003004 -6.113801 -15.893243 -3.847354 -0.000905 -0.0018 0.009573 -10.297694 -5.690163 -4.346039 11.048065 -11.307052 -2.359998 -1.404939 -14.250446 -6.329269 -0.625397 -26.956522 -3.858449 -3.751688 -49.755692 -4.406682 -13.71951 -7.368629 -3.713584 18.164818 -14.056735 -3.240442 0.005623 -18.803694 -0.024053 -0.42895 -8.464201 2.550383 -0.005625 0.008907 -0.0 -15.941694 -20.122931 -5.461298 30.442266 -7.181609 1.71864 -0.000262 -8.175624 0.009846 -1.852209 -22.873262 -6.186286 0.000133 0.017115 0.01161 150.461304 -2.006291 0.326843 14.520523 0.124091 -0.012885 -71.145515 0.100192 -5.181442 -8.720239 1.517084 1.960539 -1.002263 0.000126 -3e-05 -1.262588 4.715868 4.731331 29.682009 -0.130884 -0.001593 -94.379799 -3.990282 3.242473 -5.804852 0.596332 1.685217 -1.000733 -0.000182 -3.7e-05 
0.0 0.0 0.0 0.0 -0.0 0.0 -1.875814 95.854774 -4.253084 88.531982 -1.43037 89.401573 -2.759264 1.978325 0.373129 -12.480112 -0.228996 0.614231 29.049673 -0.696468 -1.418163 38.526752 -4.086583 2.18651 -2.735512 -0.629342 -0.068938 -33.040394 -0.251671 -0.821181 -0.0043 -0.00085 -0.000231 -0.028958 -0.036301 0.100729 0.085553 -0.116538 0.104707 0.064966 0.045052 0.089194 -131.621796 -85.499153 153.495239 54.399239 -54.083412 -15.158791 25.23443 -0.354751 -0.295815 -0.272507 4.222804 -12.687838 17.663015 -26.351049 52.455715 -19.480417 -14.403219 29.438597 -0.00397 -8.78012 -0.014784 16.479372 -18.673681 5.982583 -0.611786 -1.798529 -3.893092 -4.815682 -11.057689 -2.934364 0.003341 -21.005438 -0.008402 -5.023361 -25.078299 -4.032035 0.006588 0.002726 0.002157 -10.646628 -5.693185 -3.563136 10.582693 -17.946953 -3.111831 0.001236 -13.833938 0.00574 -0.491735 -31.230286 -4.026646 -11.962805 -60.789402 7.934075 -13.998711 -7.156627 -2.874272 13.78042 -8.409255 -3.213566 0.351859 -34.243717 0.760249 -0.96238 -17.746279 2.624234 0.00345 -0.006998 0.008703 -17.363226 -20.12298 -4.202717 21.772343 -1.641354 3.878868 0.005692 -6.350721 -0.004306 -1.704101 -22.607111 -6.204093 0.002152 8.2e-05 -0.004781 -34.298603 -82.44236 -122.752693 57.407043 -44.781994 -6.167356 36.590969 0.473837 0.397911 -7.394899 1.323559 -20.986387 22.263098 -20.391579 49.937756 -16.734322 -16.746536 28.475374 -0.002095 -12.715696 0.004873 16.474977 -17.799843 2.329729 -0.10511 -1.521833 -4.281711 -5.033675 -5.62079 -2.94947 -0.00198 -11.039844 0.017444 -6.094123 -15.941081 -3.869673 -0.003453 0.005341 0.007896 -10.288849 -5.69125 -4.336243 11.051484 -11.329433 -2.391569 -1.400119 -14.263005 -6.305338 -0.621691 -26.991663 -3.843058 -3.836058 -49.774063 -4.176842 -13.72139 -7.377516 -3.712377 18.17004 -14.085813 -3.24153 0.026567 -18.849068 0.004262 -0.414883 -8.459255 2.543524 0.008173 -0.015385 -0.006398 -15.936646 -20.136309 -5.494444 30.471268 -7.245861 1.776804 0.014204 -8.170177 -0.020263 -1.852336 -22.933603 -6.186051 0.002291 -0.007021 -0.013828 149.431534 -2.175005 0.254332 13.605377 0.110151 -0.074036 -71.089851 -0.593532 -4.178443 -8.694868 1.483069 1.967121 -0.988419 -0.000114 0.000423 1.243215 4.639484 4.980655 29.007206 -0.193162 -0.03685 -94.485817 -4.257396 3.069926 -6.370098 0.554311 1.668054 -1.004188 -0.000329 0.000119 
0.0 0.0 0.0 0.0 -0.0 0.0 -1.640292 95.476036 -1.348317 88.661362 -1.329544 89.064957 -2.883248 1.848009 0.419965 -12.529408 -0.209121 0.762245 29.1516 -0.814358 -1.325197 38.373604 -4.466215 2.134895 -2.672286 -0.657838 0.02982 -33.035656 -0.13327 -0.620849 0.004177 9.3e-05 0.000851 0.008116 -0.036562 0.110454 0.104993 -0.111343 0.114891 0.077907 0.034861 0.092762 -132.373505 -84.274399 154.447418 53.804405 -54.227821 -14.724042 25.574284 -0.185355 -0.200182 -0.379191 4.244039 -11.878838 17.642267 -26.33674 52.488052 -19.475521 -14.410026 29.423717 0.00247 -8.790094 0.002675 16.485151 -18.700796 6.011797 -0.613593 -1.798283 -3.893774 -4.809174 -11.050648 -2.940919 -0.005083 -20.968735 -0.004807 -5.027839 -25.048031 -4.045506 -0.005396 -0.001294 0.002095 -10.657586 -5.696504 -3.569151 10.595734 -17.933033 -3.110585 -0.003818 -13.834054 -0.005243 -0.504874 -31.196453 -4.03347 -11.921618 -60.639812 7.842124 -14.001972 -7.157303 -2.87759 13.791835 -8.404328 -3.214918 0.353114 -34.221088 0.769103 -0.960856 -17.758451 2.632676 -0.005799 0.008106 0.002641 -17.373728 -20.117908 -4.213439 21.792604 -1.642645 3.873545 0.003299 -6.342763 0.009186 -1.698594 -22.60178 -6.195882 -0.003943 -0.002037 0.007773 -34.069958 -81.770012 -121.783478 57.497414 -44.536022 -6.401767 36.536972 0.552911 0.338581 -7.233943 0.98989 -21.435444 22.174791 -20.33246 49.866653 -16.67244 -16.733984 28.412714 0.00511 -12.678199 -0.00742 16.381012 -17.857954 2.478546 -0.108688 -1.513327 -4.253673 -5.029798 -5.608984 -2.962412 0.002414 -11.011824 -0.003443 -6.099642 -15.870011 -3.821943 0.002049 0.003876 -0.013298 -10.280098 -5.676754 -4.341691 11.016069 -11.289099 -2.363354 -1.379207 -14.217408 -6.322129 -0.611609 -26.910862 -3.821216 -3.819794 -49.656345 -4.041738 -13.710741 -7.361216 -3.70699 18.143221 -14.040379 -3.235632 -0.000957 -18.759022 -0.020688 -0.423293 -8.437584 2.556147 -0.000348 -0.00111 -0.001171 -15.920696 -20.078476 -5.459825 30.393047 -7.187921 1.737027 0.002151 -8.157811 -0.005594 -1.847577 -22.830544 -6.157012 -0.005966 -0.000963 -0.006381 148.737213 -1.925138 0.075593 14.390862 0.099958 -0.153111 -70.760628 -0.788019 -3.281194 -8.726934 1.508507 1.988623 -1.001768 -5.5e-05 -0.000647 3.512659 4.175064 4.886292 28.859766 -0.220861 -0.068632 -94.303474 -3.710575 3.091775 -7.270389 0.534798 1.628834 -1.002875 -0.000133 0.00013 
0.0 0.0 0.0 0.0 -0.0 0.0 -1.288838 95.110146 1.531255 89.074066 -1.339787 88.57412 -3.133996 1.507269 0.462336 -12.674773 -0.225683 0.89103 29.322733 -1.097719 -1.153927 38.275501 -4.794024 2.155694 -2.612741 -0.649631 0.101282 -32.976479 0.089123 -0.456651 -0.002402 0.000446 -0.000613 0.008092 -0.03458 0.108362 0.109337 -0.108267 0.115034 0.070934 0.034705 0.094625 -133.825562 -83.800842 155.943527 53.540867 -54.253304 -14.288343 25.406357 -0.035644 -0.102172 -0.519681 4.158221 -11.249102 17.65484 -26.420111 52.613628 -19.453171 -14.432847 29.493782 0.000554 -8.790799 0.001632 16.458834 -18.73419 6.019688 -0.61015 -1.792524 -3.908873 -4.814552 -11.044784 -2.941391 -0.00627 -20.980368 0.015046 -5.032526 -25.036951 -4.033482 0.010254 0.003036 0.001805 -10.648442 -5.689362 -3.582695 10.581247 -17.916592 -3.111826 -0.002713 -13.827732 0.007851 -0.515934 -31.192207 -4.015312 -11.925083 -60.379875 7.765456 -13.998906 -7.155177 -2.903852 13.791937 -8.401289 -3.205092 0.336881 -34.236824 0.786487 -0.981509 -17.720642 2.630607 -0.006284 0.005259 -0.0 -17.364799 -20.105606 -4.231954 21.7803 -1.63762 3.874022 -0.007094 -6.33432 0.005476 -1.71934 -22.563055 -6.188487 0.000644 -0.00795 0.002751 -34.349361 -81.81041 -121.495377 57.67704 -44.534599 -6.612058 36.416042 0.496208 0.318027 -7.071706 0.81555 -21.246964 22.188091 -20.433964 50.042671 -16.669395 -16.753862 28.517996 0.012646 -12.686445 -0.005651 16.293959 -17.92034 2.566404 -0.10546 -1.498527 -4.303822 -5.038304 -5.617252 -2.954073 -0.004253 -11.015955 0.026197 -6.097967 -15.894016 -3.841082 0.002365 0.008357 -0.006979 -10.26754 -5.674519 -4.37334 10.99899 -11.305176 -2.373395 -1.393714 -14.254546 -6.295929 -0.630006 -26.959627 -3.836041 -4.00567 -49.785053 -4.074741 -13.703473 -7.35715 -3.746579 18.130703 -14.044568 -3.234679 -0.022121 -18.798958 0.032395 -0.422988 -8.463088 2.53556 -0.007782 0.009963 0.012314 -15.896174 -20.090921 -5.509747 30.381685 -7.197071 1.724748 0.00202 -8.163312 0.012635 -1.888339 -22.848816 -6.143571 0.0 -0.00223 -0.011379 148.317047 -1.298745 -0.088178 17.06529 0.093667 -0.245083 -70.091721 -0.955355 -1.946482 -8.769464 1.5928 1.99797 -0.996901 -0.000573 -1.3e-05 5.157057 3.193938 4.31068 29.644951 -0.250442 -0.040984 -93.431381 -2.596449 2.981336 -8.749746 0.580293 1.605652 -0.99867 -0.001124 0.000444 
